<svg xmlns="http://www.w3.org/2000/svg" xmlns:xlink="http://www.w3.org/1999/xlink" version="1.1" id="Layer_1" x="0" y="0" width="26" height="23" viewBox="0 0 26 23" xml:space="preserve" enable-background="new 0 0 26 23">
  <path d="M24 22H2V9h22V22zM25 8H1v15h24V8z"/>
  <path d="M25 8H1V6h24V8zM26 5H0v4h26V5z"/>
  <rect x="12.5" y="5.5" width="1" height="17"/>
  <path d="M10.5 1c1.1 0 2 0.9 2 2v2h-2c-1.1 0-2-0.9-2-2S9.4 1 10.5 1M10.5 0c-1.7 0-3 1.3-3 3s1.3 3 3 3h3V3C13.5 1.3 12.2 0 10.5 0"/>
  <path d="M15.5 1c1.1 0 2 0.9 2 2s-0.9 2-2 2h-2V3C13.5 1.9 14.4 1 15.5 1M15.5 0c-1.7 0-3 1.3-3 3v3h3c1.7 0 3-1.3 3-3S17.2 0 15.5 0"/>
</svg>