<svg xmlns="http://www.w3.org/2000/svg" xmlns:xlink="http://www.w3.org/1999/xlink" version="1.1" id="Layer_1" x="0" y="0" width="31.7" height="31.7" viewBox="0 0 31.7 31.7" xml:space="preserve">
  <path d="M15.8 2.2c7.5 0 13.7 6.1 13.7 13.7 0 7.5-6.1 13.7-13.7 13.7 -7.5 0-13.7-6.1-13.7-13.7C2.2 8.3 8.3 2.2 15.8 2.2M15.8 0.9C7.6 0.9 0.9 7.6 0.9 15.8c0 8.2 6.7 14.9 14.9 14.9s14.9-6.7 14.9-14.9C30.8 7.6 24.1 0.9 15.8 0.9" fill="#FFD8B4"/>
  <path d="M22.3 9.4l-3.7 9.3 -9.3 3.7 3.7-9.2L22.3 9.4zM24.6 7.1l-12.4 5 -5 12.4 12.4-5L24.6 7.1z" fill="#FFD8B4"/>
  <path d="M15.8 16.8c-0.5 0-0.9-0.4-0.9-0.9 0-0.5 0.4-0.9 0.9-0.9 0.5 0 0.9 0.4 0.9 0.9C16.8 16.4 16.4 16.8 15.8 16.8M15.8 15.5c-0.2 0-0.3 0.1-0.3 0.3 0 0.3 0.6 0.3 0.6 0C16.2 15.7 16 15.5 15.8 15.5" fill="#FFD8B4"/>
</svg>