<svg xmlns="http://www.w3.org/2000/svg" xmlns:xlink="http://www.w3.org/1999/xlink" version="1.1" id="Layer_1" x="0" y="0" width="30.8" height="30.5" viewBox="0 0 30.8 30.5" xml:space="preserve">
  <path d="M15.4 1.5c7.5 0 13.7 6.1 13.7 13.7 0 7.5-6.1 13.7-13.7 13.7S1.7 22.8 1.7 15.2C1.7 7.7 7.8 1.5 15.4 1.5M15.4 0.3C7.1 0.3 0.5 7 0.5 15.2c0 8.2 6.7 14.9 14.9 14.9s14.9-6.7 14.9-14.9C30.3 7 23.6 0.3 15.4 0.3"/>
  <polygon points="15.4 18.6 8.7 11.9 9.6 11.1 15.4 16.8 23.6 8.6 24.5 9.4 "/>
  <path d="M15.4 5c-0.5 0-0.9-0.4-0.9-0.9s0.4-0.9 0.9-0.9c0.5 0 0.9 0.4 0.9 0.9S15.9 5 15.4 5M15.4 3.7c-0.2 0-0.3 0.1-0.3 0.3 0 0.3 0.6 0.3 0.6 0C15.7 3.9 15.6 3.7 15.4 3.7"/>
  <path d="M15.4 27.4c-0.5 0-0.9-0.4-0.9-0.9s0.4-0.9 0.9-0.9c0.5 0 0.9 0.4 0.9 0.9S15.9 27.4 15.4 27.4M15.4 26.1c-0.2 0-0.3 0.1-0.3 0.3 0 0.3 0.6 0.3 0.6 0C15.7 26.3 15.6 26.1 15.4 26.1"/>
  <path d="M4.2 16.2c-0.5 0-0.9-0.4-0.9-0.9 0-0.5 0.4-0.9 0.9-0.9 0.5 0 0.9 0.4 0.9 0.9C5.1 15.7 4.7 16.2 4.2 16.2M4.2 14.9c-0.2 0-0.3 0.1-0.3 0.3 0 0.3 0.6 0.3 0.6 0C4.5 15.1 4.4 14.9 4.2 14.9"/>
  <path d="M26.6 16.2c-0.5 0-0.9-0.4-0.9-0.9 0-0.5 0.4-0.9 0.9-0.9 0.5 0 0.9 0.4 0.9 0.9C27.5 15.7 27.1 16.2 26.6 16.2M26.6 14.9c-0.2 0-0.3 0.1-0.3 0.3 0 0.3 0.6 0.3 0.6 0C26.9 15.1 26.8 14.9 26.6 14.9"/>
</svg>